<svg xmlns="http://www.w3.org/2000/svg" xmlns:xlink="http://www.w3.org/1999/xlink" width="100" zoomAndPan="magnify" viewBox="0 0 75 74.999997" height="100" preserveAspectRatio="xMidYMid meet" version="1.0"><path fill="#8e88ed" d="M 35.929688 0.785156 C 32.640625 2.433594 29.34375 4.089844 26.273438 6.117188 C 25.09375 6.898438 23.9375 7.746094 23.015625 8.816406 C 21.660156 10.398438 20.863281 12.453125 20.800781 14.535156 C 20.984375 13.097656 21.167969 11.660156 21.351562 10.222656 C 21.410156 9.757812 21.472656 9.277344 21.710938 8.871094 C 22.007812 8.378906 22.523438 8.066406 23.019531 7.777344 C 27.070312 5.410156 31.121094 3.042969 35.171875 0.675781 C 35.71875 0.355469 36.296875 0.0273438 36.929688 0.0117188 C 37.3125 0.00390625 37.6875 0.109375 38.058594 0.21875 C 39.089844 0.515625 40.121094 0.8125 41.15625 1.109375 C 34.242188 4.863281 27.667969 9.246094 21.542969 14.183594 C 21.335938 14.347656 20.855469 14.28125 21.019531 14.074219 C 22.058594 13.105469 23.097656 12.132812 24.226562 11.269531 C 29.171875 7.484375 35.742188 5.832031 39.796875 1.101562 C 39.089844 1.230469 38.34375 1.136719 37.691406 0.832031 C 37.410156 0.703125 37.132812 0.53125 36.820312 0.515625 C 36.507812 0.5 36.210938 0.644531 35.929688 0.785156 " fill-opacity="1" fill-rule="nonzero"/><path fill="#8e88ed" d="M 21.820312 9.347656 C 23.492188 9.675781 25.195312 9.84375 26.902344 9.851562 C 25.503906 9.597656 24.109375 9.34375 22.710938 9.089844 C 22.3125 9.015625 21.722656 9.089844 21.730469 9.496094 L 21.820312 9.347656 " fill-opacity="1" fill-rule="nonzero"/><path fill="#8e88ed" d="M 28.808594 4.660156 C 30.652344 4.761719 32.488281 5.039062 34.28125 5.484375 C 32.820312 5.03125 31.359375 4.574219 29.898438 4.121094 C 29.777344 4.082031 29.652344 4.046875 29.527344 4.066406 C 29.125 4.128906 28.945312 4.734375 28.535156 4.722656 C 28.523438 4.578125 28.511719 4.433594 28.5 4.289062 L 28.808594 4.660156 " fill-opacity="1" fill-rule="nonzero"/><path fill="#8e88ed" d="M 20.878906 14.84375 C 25.761719 14.597656 30.660156 14.714844 35.527344 15.195312 C 36.636719 10.363281 39.863281 6.207031 40.828125 1.347656 C 40.359375 1.648438 39.886719 1.949219 39.417969 2.253906 C 33.386719 6.132812 27.441406 10.148438 21.589844 14.296875 C 27.769531 10.402344 33.949219 6.511719 40.128906 2.617188 C 38.082031 6.53125 36.300781 10.582031 34.796875 14.738281 C 34.078125 14.101562 33.027344 13.988281 32.070312 14.105469 C 31.117188 14.226562 30.195312 14.539062 29.238281 14.636719 C 27.570312 14.808594 25.910156 14.320312 24.234375 14.289062 C 23.09375 14.261719 21.949219 14.453125 20.878906 14.84375 " fill-opacity="1" fill-rule="nonzero"/><path fill="#8e88ed" d="M 28.757812 4.425781 C 27.972656 6.003906 27.460938 7.71875 27.25 9.472656 C 28.0625 7.703125 28.75 5.875 29.304688 4.007812 C 29.09375 4.066406 28.882812 4.125 28.671875 4.183594 L 28.757812 4.425781 " fill-opacity="1" fill-rule="nonzero"/><path fill="#8e88ed" d="M 35.480469 0.566406 C 35.078125 2.101562 34.75 3.65625 34.488281 5.21875 C 34.882812 4.832031 35.050781 4.277344 35.203125 3.746094 C 35.527344 2.59375 35.855469 1.441406 36.183594 0.289062 C 35.816406 0.402344 35.476562 0.597656 35.199219 0.863281 L 35.480469 0.566406 " fill-opacity="1" fill-rule="nonzero"/><path fill="#8e88ed" d="M 34.265625 7.859375 C 34.683594 9.96875 34.835938 12.125 34.71875 14.273438 C 34.238281 13.648438 33.554688 13.214844 32.886719 12.796875 C 31.300781 11.808594 29.71875 10.816406 28.132812 9.828125 C 27.988281 10.152344 27.683594 10.398438 27.335938 10.480469 C 28.136719 10.578125 28.855469 11 29.550781 11.410156 C 31.34375 12.476562 33.132812 13.542969 34.925781 14.605469 C 34.855469 11.652344 34.726562 8.699219 34.535156 5.753906 C 33.988281 6.253906 34.121094 7.132812 34.265625 7.859375 " fill-opacity="1" fill-rule="nonzero"/><path fill="#8e88ed" d="M 33.988281 15.019531 C 34.476562 15.585938 35.390625 15.816406 36.007812 15.390625 C 36.628906 14.96875 36.660156 13.867188 35.996094 13.519531 C 35.722656 13.914062 36.328125 14.535156 36.011719 14.894531 C 35.917969 15.003906 35.765625 15.042969 35.621094 15.070312 C 35.097656 15.167969 34.558594 15.199219 34.03125 15.160156 C 34.0625 15.292969 34.179688 15.40625 34.316406 15.433594 L 33.988281 15.019531 " fill-opacity="1" fill-rule="nonzero"/><path fill="#8e88ed" d="M 34.054688 15.625 C 33.886719 15.839844 34.019531 16.179688 34.257812 16.3125 C 34.496094 16.445312 34.789062 16.417969 35.054688 16.347656 C 36.140625 16.066406 37.015625 15.089844 37.179688 13.980469 C 36.886719 13.917969 36.59375 13.855469 36.300781 13.792969 C 36.785156 13.902344 36.992188 14.546875 36.804688 15.003906 C 36.613281 15.46875 36.160156 15.761719 35.699219 15.953125 C 35.410156 16.078125 35.085938 16.171875 34.789062 16.078125 C 34.488281 15.980469 34.261719 15.617188 34.414062 15.34375 C 34.167969 15.46875 34.019531 15.753906 34.058594 16.027344 C 34.191406 15.980469 34.328125 15.9375 34.460938 15.890625 L 34.054688 15.625 " fill-opacity="1" fill-rule="nonzero"/><path fill="#8e88ed" d="M 37 14.695312 C 36.816406 14.445312 37.125 14.136719 37.394531 13.992188 C 42.355469 11.34375 48.242188 10.40625 53.753906 11.535156 C 59.261719 12.667969 64.34375 15.894531 67.582031 20.496094 C 68.144531 21.296875 68.65625 22.132812 69.132812 22.988281 C 69.441406 23.546875 69.738281 24.109375 70.015625 24.6875 C 68.578125 21.886719 66.183594 19.699219 63.847656 17.582031 C 62.367188 16.246094 60.875 14.898438 59.15625 13.886719 C 55.855469 11.949219 51.875 11.382812 48.058594 11.726562 C 44.246094 12.070312 40.558594 13.277344 37 14.695312 " fill-opacity="1" fill-rule="nonzero"/><path fill="#8e88ed" d="M 70.398438 25.503906 C 70.292969 25.265625 70.179688 25.027344 70.066406 24.789062 C 70.097656 24.847656 70.125 24.902344 70.152344 24.957031 C 70.238281 25.140625 70.324219 25.320312 70.398438 25.503906 " fill-opacity="1" fill-rule="nonzero"/><path fill="#8e88ed" d="M 42.664062 57.539062 C 42.632812 57.609375 42.601562 57.675781 42.574219 57.742188 C 42.417969 57.695312 42.269531 57.652344 42.113281 57.605469 C 40.851562 57.234375 39.605469 56.8125 38.367188 56.382812 C 37.28125 56.003906 36.1875 55.621094 35.183594 55.054688 C 32.496094 53.535156 30.679688 50.859375 29.117188 48.195312 C 28.289062 46.78125 27.503906 45.335938 26.875 43.824219 C 25.449219 40.390625 24.875 36.613281 25.175781 32.910156 C 25.175781 32.894531 25.175781 32.878906 25.179688 32.863281 C 25.265625 31.808594 25.425781 30.761719 25.652344 29.726562 C 25.710938 29.464844 25.773438 29.203125 25.84375 28.941406 C 25.847656 28.925781 25.851562 28.910156 25.855469 28.894531 C 27.140625 23.984375 30.078125 19.523438 34.070312 16.394531 C 34.351562 16.171875 34.96875 16.152344 34.867188 16.5 C 33.097656 17.304688 31.960938 19.035156 30.921875 20.679688 C 29.703125 22.601562 28.480469 24.542969 27.542969 26.609375 C 27.519531 26.664062 27.496094 26.71875 27.472656 26.777344 C 27.28125 27.203125 27.105469 27.636719 26.941406 28.078125 C 26.839844 28.355469 26.742188 28.636719 26.65625 28.914062 C 26.570312 29.175781 26.492188 29.441406 26.421875 29.703125 C 26.144531 30.71875 25.945312 31.75 25.828125 32.792969 C 25.824219 32.820312 25.820312 32.847656 25.820312 32.875 C 25.132812 39.105469 27.195312 45.652344 30.972656 50.746094 C 31.75 51.789062 32.597656 52.792969 33.625 53.59375 C 35 54.664062 36.628906 55.335938 38.246094 55.972656 C 39.546875 56.484375 40.859375 56.984375 42.195312 57.394531 C 42.351562 57.445312 42.507812 57.492188 42.664062 57.539062 " fill-opacity="1" fill-rule="nonzero"/><path fill="#8e88ed" d="M 45.742188 58.238281 C 45.773438 58.242188 45.808594 58.246094 45.839844 58.25 C 45.808594 58.332031 45.777344 58.414062 45.746094 58.492188 C 45.585938 58.464844 45.429688 58.433594 45.273438 58.402344 C 45.300781 58.328125 45.328125 58.25 45.351562 58.171875 C 45.480469 58.195312 45.613281 58.214844 45.742188 58.238281 " fill-opacity="1" fill-rule="nonzero"/><path fill="#8e88ed" d="M 72.449219 38.324219 C 72.125 40.144531 71.5 41.898438 70.738281 43.585938 C 68.835938 47.78125 66.023438 51.613281 62.355469 54.40625 C 58.6875 57.199219 54.140625 58.910156 49.527344 58.871094 C 48.996094 58.867188 48.46875 58.839844 47.945312 58.792969 C 47.625 58.765625 47.308594 58.730469 46.992188 58.691406 C 47.003906 58.652344 47.019531 58.613281 47.03125 58.574219 C 47.054688 58.511719 47.074219 58.453125 47.097656 58.390625 C 47.417969 58.417969 47.738281 58.433594 48.0625 58.441406 C 52.664062 58.570312 57.292969 57.066406 61.082031 54.429688 C 65.511719 51.351562 68.832031 46.8125 70.84375 41.804688 C 71.320312 40.625 71.726562 39.410156 71.953125 38.164062 C 72.378906 35.832031 72.175781 33.429688 71.832031 31.082031 C 71.546875 29.1875 71.167969 27.285156 70.410156 25.527344 C 72.230469 29.5625 73.214844 34 72.449219 38.324219 " fill-opacity="1" fill-rule="nonzero"/><path fill="#8e88ed" d="M 27.863281 32.410156 C 27.851562 32.492188 27.84375 32.578125 27.835938 32.660156 C 27.828125 32.742188 27.820312 32.820312 27.8125 32.898438 C 27.792969 33.125 27.773438 33.347656 27.761719 33.574219 C 27.769531 33.347656 27.78125 33.125 27.800781 32.898438 C 27.8125 32.820312 27.820312 32.742188 27.828125 32.660156 C 27.839844 32.578125 27.847656 32.496094 27.863281 32.410156 " fill-opacity="1" fill-rule="nonzero"/><path fill="#8e88ed" d="M 36.753906 17.648438 C 35.300781 19.613281 33.839844 21.582031 32.378906 23.546875 C 31.574219 24.636719 30.753906 25.75 30.039062 26.910156 C 29.929688 27.085938 29.824219 27.261719 29.722656 27.4375 C 29.40625 27.976562 29.113281 28.527344 28.859375 29.09375 C 28.765625 29.292969 28.679688 29.492188 28.597656 29.695312 C 28.269531 30.515625 28.023438 31.363281 27.886719 32.246094 C 27.878906 32.28125 27.875 32.316406 27.871094 32.355469 C 27.972656 31.457031 28.128906 30.570312 28.34375 29.695312 C 28.386719 29.515625 28.433594 29.332031 28.484375 29.152344 C 28.496094 29.113281 28.503906 29.074219 28.515625 29.035156 C 28.671875 28.484375 28.847656 27.933594 29.050781 27.394531 C 29.125 27.191406 29.203125 26.984375 29.289062 26.785156 C 30.800781 23.078125 33.390625 19.804688 36.753906 17.648438 " fill-opacity="1" fill-rule="nonzero"/><path fill="#8e88ed" d="M 43.40625 55.402344 C 43.398438 55.4375 43.386719 55.476562 43.378906 55.511719 C 43.179688 55.464844 42.980469 55.417969 42.785156 55.363281 C 38.914062 54.371094 35.304688 52.527344 32.710938 49.539062 C 31.160156 47.753906 30.035156 45.628906 29.222656 43.402344 C 28.082031 40.28125 27.5625 36.914062 27.761719 33.601562 C 27.714844 34.980469 27.902344 36.367188 28.167969 37.726562 C 28.929688 41.632812 30.378906 45.453125 32.78125 48.628906 C 35.179688 51.800781 38.585938 54.300781 42.457031 55.210938 C 42.570312 55.238281 42.6875 55.265625 42.804688 55.289062 C 43.003906 55.332031 43.203125 55.371094 43.40625 55.402344 " fill-opacity="1" fill-rule="nonzero"/><path fill="#8e88ed" d="M 46.597656 55.6875 C 46.570312 55.816406 46.539062 55.941406 46.507812 56.066406 C 46.324219 56.042969 46.136719 56.019531 45.953125 55.992188 C 45.976562 55.886719 46 55.777344 46.019531 55.667969 C 46.210938 55.679688 46.402344 55.683594 46.597656 55.6875 " fill-opacity="1" fill-rule="nonzero"/><path fill="#8e88ed" d="M 68.445312 40.578125 C 67.148438 44.152344 65.003906 47.367188 62.625 50.335938 C 61.542969 51.695312 60.386719 53.023438 58.960938 54.015625 C 56.042969 56.046875 52.308594 56.460938 48.742188 56.265625 C 48.558594 56.253906 48.375 56.242188 48.195312 56.230469 C 48.074219 56.222656 47.957031 56.214844 47.839844 56.203125 C 47.898438 56.035156 47.949219 55.863281 48 55.695312 C 48.300781 55.691406 48.605469 55.6875 48.910156 55.683594 C 49 55.679688 49.085938 55.679688 49.175781 55.675781 C 51.476562 55.617188 53.835938 55.480469 55.921875 54.515625 C 57.957031 53.578125 59.566406 51.933594 61.113281 50.3125 C 64.054688 47.246094 67.0625 44.007812 68.335938 39.949219 C 69.785156 35.34375 68.773438 30.261719 66.695312 25.90625 C 65.734375 23.894531 64.539062 21.976562 62.957031 20.410156 C 61.773438 19.242188 60.382812 18.289062 58.914062 17.503906 C 52.234375 13.953125 43.707031 14.167969 37.210938 18.042969 C 37.828125 16.722656 39.347656 16.128906 40.746094 15.722656 C 45.761719 14.273438 51.265625 13.734375 56.136719 15.628906 C 59.457031 16.921875 62.28125 19.273438 64.632812 21.949219 C 66.550781 24.128906 68.214844 26.59375 69.054688 29.371094 C 70.148438 33.015625 69.742188 37 68.445312 40.578125 " fill-opacity="1" fill-rule="nonzero"/><path fill="#8e88ed" d="M 43.976562 51.902344 C 43.96875 51.988281 43.964844 52.078125 43.957031 52.164062 C 43.714844 52.09375 43.46875 52.015625 43.226562 51.933594 C 38.839844 50.441406 35 47.273438 32.957031 43.097656 C 31.515625 40.144531 31.019531 36.789062 31.390625 33.527344 C 31.394531 33.511719 31.394531 33.496094 31.398438 33.480469 C 31.511719 32.492188 31.703125 31.507812 31.976562 30.554688 C 31.992188 30.5 32.007812 30.449219 32.023438 30.398438 C 32.277344 29.527344 32.597656 28.675781 32.980469 27.859375 C 33 27.808594 33.023438 27.761719 33.046875 27.710938 C 33.878906 25.964844 34.992188 24.359375 36.371094 22.996094 C 35.585938 24.488281 34.796875 25.980469 34.007812 27.476562 C 33.921875 27.640625 33.835938 27.808594 33.75 27.972656 C 33.707031 28.050781 33.667969 28.125 33.628906 28.203125 C 33.234375 28.96875 32.855469 29.738281 32.546875 30.539062 C 32.523438 30.605469 32.496094 30.675781 32.472656 30.742188 C 32.433594 30.84375 32.398438 30.945312 32.363281 31.046875 C 31.195312 34.515625 31.648438 38.417969 33.214844 41.730469 C 34.78125 45.039062 37.394531 47.78125 40.394531 49.878906 C 41.296875 50.507812 42.246094 51.085938 43.238281 51.566406 C 43.480469 51.683594 43.726562 51.796875 43.976562 51.902344 " fill-opacity="1" fill-rule="nonzero"/><path fill="#8e88ed" d="M 46.5625 52.722656 C 46.507812 52.71875 46.449219 52.707031 46.394531 52.703125 C 46.398438 52.699219 46.398438 52.691406 46.394531 52.6875 C 46.449219 52.703125 46.507812 52.710938 46.5625 52.722656 " fill-opacity="1" fill-rule="nonzero"/><path fill="#8e88ed" d="M 47.027344 52.78125 C 47.027344 52.789062 47.027344 52.800781 47.027344 52.808594 C 46.871094 52.785156 46.71875 52.757812 46.5625 52.722656 C 46.71875 52.746094 46.871094 52.765625 47.027344 52.78125 " fill-opacity="1" fill-rule="nonzero"/><path fill="#8e88ed" d="M 50.554688 52.789062 C 50.242188 52.84375 49.925781 52.886719 49.609375 52.914062 C 49.335938 52.9375 49.066406 52.949219 48.789062 52.953125 L 48.671875 52.953125 C 48.675781 52.925781 48.679688 52.902344 48.683594 52.878906 C 48.996094 52.882812 49.304688 52.878906 49.617188 52.863281 C 49.929688 52.847656 50.242188 52.824219 50.554688 52.789062 " fill-opacity="1" fill-rule="nonzero"/><path fill="#8e88ed" d="M 66.074219 35.164062 C 66.023438 37.09375 65.933594 39.058594 65.28125 40.871094 C 64.210938 43.863281 61.765625 46.117188 59.40625 48.246094 C 57.996094 49.515625 56.5625 50.804688 54.855469 51.628906 C 53.621094 52.230469 52.277344 52.570312 50.917969 52.746094 C 50.800781 52.761719 50.679688 52.777344 50.558594 52.789062 C 52.636719 52.421875 54.617188 51.464844 56.34375 50.230469 C 58.554688 48.648438 60.40625 46.625 62.214844 44.59375 C 62.917969 43.808594 63.625 43.003906 64.128906 42.078125 C 64.734375 40.972656 65.03125 39.734375 65.238281 38.492188 C 66.183594 32.800781 64.960938 26.335938 60.527344 22.640625 C 59.199219 21.535156 57.648438 20.726562 56.117188 19.929688 C 54.0625 18.863281 51.910156 17.769531 49.59375 17.757812 C 48.429688 17.746094 47.277344 18.019531 46.148438 18.3125 C 42.726562 19.207031 39.261719 20.390625 36.605469 22.726562 C 40.460938 18.910156 46.152344 17.039062 51.519531 17.824219 C 56.886719 18.609375 61.804688 22.035156 64.40625 26.792969 C 65.03125 27.9375 65.53125 29.160156 65.800781 30.433594 C 66.128906 31.984375 66.113281 33.582031 66.074219 35.164062 " fill-opacity="1" fill-rule="nonzero"/><path fill="#8e88ed" d="M 6.09375 63.253906 C 6.773438 64.382812 7.53125 65.457031 8.378906 66.460938 C 7.875 65.957031 7.40625 65.421875 7 64.832031 C 6.65625 64.332031 6.359375 63.800781 6.09375 63.253906 " fill-opacity="1" fill-rule="nonzero"/><path fill="#8e88ed" d="M 18.242188 28.472656 C 19.300781 28.101562 20.386719 27.734375 21.480469 27.484375 L 17.027344 28.933594 C 17.140625 28.878906 17.253906 28.828125 17.371094 28.777344 C 17.664062 28.675781 17.953125 28.574219 18.242188 28.472656 " fill-opacity="1" fill-rule="nonzero"/><path fill="#8e88ed" d="M 5.144531 61.011719 C 5.441406 61.765625 5.742188 62.523438 6.09375 63.253906 C 5.335938 61.992188 4.675781 60.664062 4.117188 59.304688 C 3.042969 56.695312 2.308594 53.929688 2.136719 51.113281 C 1.773438 45.039062 4.164062 38.90625 8.328125 34.472656 C 10.671875 31.976562 13.554688 30.019531 16.691406 28.667969 C 18.265625 27.988281 19.90625 27.464844 21.578125 27.097656 C 22.011719 27 22.476562 26.957031 22.945312 26.933594 C 21.035156 27.367188 19.164062 27.984375 17.371094 28.777344 C 16.769531 28.988281 16.167969 29.199219 15.5625 29.410156 L 17.027344 28.933594 C 12.429688 31.03125 8.390625 34.277344 5.703125 38.53125 C 4.902344 39.796875 4.222656 41.140625 3.679688 42.539062 C 2.746094 44.925781 2.210938 47.484375 2.277344 50.050781 C 2.371094 53.84375 3.757812 57.476562 5.144531 61.011719 " fill-opacity="1" fill-rule="nonzero"/><path fill="#8e88ed" d="M 23.214844 26.917969 C 23.125 26.921875 23.035156 26.925781 22.945312 26.933594 C 23.171875 26.878906 23.398438 26.832031 23.625 26.785156 L 23.214844 26.917969 " fill-opacity="1" fill-rule="nonzero"/><path fill="#8e88ed" d="M 24.398438 26.636719 C 24.140625 26.683594 23.882812 26.730469 23.625 26.785156 L 23.898438 26.695312 C 24.066406 26.671875 24.230469 26.652344 24.398438 26.636719 " fill-opacity="1" fill-rule="nonzero"/><path fill="#8e88ed" d="M 21.480469 27.484375 L 23.214844 26.917969 C 24.324219 26.867188 25.457031 26.882812 26.386719 26.542969 C 26.558594 26.800781 26.339844 27.171875 26.050781 27.28125 C 25.761719 27.386719 25.4375 27.324219 25.132812 27.273438 C 23.914062 27.085938 22.691406 27.210938 21.480469 27.484375 " fill-opacity="1" fill-rule="nonzero"/><path fill="#8e88ed" d="M 27.296875 26.597656 C 27.378906 26.597656 27.460938 26.605469 27.542969 26.609375 C 27.519531 26.664062 27.496094 26.71875 27.472656 26.777344 C 27.414062 26.722656 27.355469 26.664062 27.296875 26.597656 " fill-opacity="1" fill-rule="nonzero"/><path fill="#8e88ed" d="M 30.039062 26.910156 C 29.929688 27.085938 29.824219 27.261719 29.722656 27.4375 C 29.492188 27.433594 29.265625 27.421875 29.050781 27.394531 C 29.125 27.191406 29.203125 26.984375 29.289062 26.785156 C 29.542969 26.820312 29.789062 26.859375 30.039062 26.910156 " fill-opacity="1" fill-rule="nonzero"/><path fill="#8e88ed" d="M 49.753906 51.824219 C 49.730469 52.171875 49.679688 52.519531 49.617188 52.863281 C 49.617188 52.878906 49.613281 52.894531 49.609375 52.914062 C 49.496094 53.527344 49.335938 54.136719 49.171875 54.738281 C 49.085938 55.054688 49 55.367188 48.910156 55.683594 C 48.855469 55.875 48.796875 56.070312 48.742188 56.265625 C 48.527344 56.992188 48.304688 57.722656 48.0625 58.441406 C 48.023438 58.558594 47.984375 58.679688 47.945312 58.792969 C 46.851562 61.972656 45.398438 65.007812 43.105469 67.429688 C 40.394531 70.28125 36.703125 72.042969 32.898438 73.046875 C 25.628906 74.960938 17.359375 74.082031 11.449219 69.441406 C 10.320312 68.558594 9.300781 67.554688 8.378906 66.460938 C 8.847656 66.929688 9.34375 67.371094 9.847656 67.792969 C 11.5625 69.246094 13.398438 70.582031 15.417969 71.566406 C 22.457031 74.996094 31.082031 73.773438 38 70.101562 C 39.945312 69.070312 41.824219 67.832031 43.25 66.160156 C 45.070312 64.03125 46.054688 61.332031 46.992188 58.691406 C 47.003906 58.652344 47.019531 58.613281 47.03125 58.574219 C 47.054688 58.511719 47.074219 58.453125 47.097656 58.390625 C 47.351562 57.667969 47.605469 56.9375 47.839844 56.203125 C 47.898438 56.035156 47.949219 55.863281 48 55.695312 C 48.277344 54.789062 48.511719 53.875 48.671875 52.953125 C 48.675781 52.925781 48.679688 52.902344 48.683594 52.878906 C 48.824219 52.050781 48.902344 51.214844 48.890625 50.371094 C 48.863281 48.113281 48.207031 45.917969 47.542969 43.757812 C 46.761719 41.21875 45.941406 38.628906 44.332031 36.507812 C 42.867188 34.578125 40.839844 33.164062 38.84375 31.78125 C 37.421875 30.796875 35.996094 29.8125 34.574219 28.828125 C 34.265625 28.613281 33.953125 28.394531 33.628906 28.203125 C 33.417969 28.074219 33.203125 27.957031 32.980469 27.859375 C 33 27.808594 33.023438 27.761719 33.046875 27.710938 C 33.28125 27.792969 33.515625 27.882812 33.75 27.972656 C 36.871094 29.1875 39.726562 31.136719 42.046875 33.5625 C 45.894531 37.589844 48.324219 42.855469 49.425781 48.316406 C 49.660156 49.472656 49.835938 50.648438 49.753906 51.824219 " fill-opacity="1" fill-rule="nonzero"/><path fill="#8e88ed" d="M 41.816406 37.367188 C 39.871094 35.105469 37.484375 33.210938 34.839844 31.828125 C 34.070312 31.421875 33.28125 31.0625 32.472656 30.742188 C 32.308594 30.675781 32.140625 30.613281 31.976562 30.554688 C 31.992188 30.5 32.007812 30.449219 32.023438 30.398438 C 32.199219 30.441406 32.375 30.492188 32.546875 30.539062 C 36.257812 31.636719 39.457031 34.199219 41.816406 37.367188 " fill-opacity="1" fill-rule="nonzero"/><path fill="#8e88ed" d="M 28.859375 29.09375 C 28.765625 29.292969 28.679688 29.492188 28.597656 29.695312 C 28.515625 29.695312 28.429688 29.695312 28.34375 29.695312 C 28.386719 29.515625 28.433594 29.332031 28.484375 29.152344 C 28.496094 29.113281 28.503906 29.074219 28.515625 29.035156 C 28.628906 29.050781 28.746094 29.070312 28.859375 29.09375 " fill-opacity="1" fill-rule="nonzero"/><path fill="#8e88ed" d="M 47.027344 52.78125 C 47.027344 52.789062 47.027344 52.800781 47.027344 52.808594 C 46.953125 53.78125 46.808594 54.742188 46.597656 55.6875 C 46.570312 55.816406 46.539062 55.941406 46.507812 56.066406 C 46.328125 56.808594 46.105469 57.535156 45.839844 58.25 C 45.808594 58.332031 45.777344 58.414062 45.746094 58.492188 C 45.308594 59.609375 44.773438 60.679688 44.128906 61.695312 C 42.566406 64.152344 40.445312 66.207031 38.164062 68.015625 C 37.058594 68.890625 35.902344 69.714844 34.636719 70.34375 C 30.621094 72.347656 25.855469 72.195312 21.460938 71.273438 C 17.890625 70.527344 14.347656 69.261719 11.511719 66.960938 C 7.5 63.699219 5.300781 58.632812 4.449219 53.535156 C 4.246094 52.316406 4.109375 51.085938 4.160156 49.851562 C 4.21875 48.300781 4.570312 46.777344 4.957031 45.273438 C 5.667969 42.539062 6.535156 39.792969 8.15625 37.476562 C 11.148438 33.210938 16.28125 30.992188 21.328125 29.710938 C 22.792969 29.335938 24.324219 29.035156 25.84375 28.941406 C 26.113281 28.925781 26.386719 28.914062 26.65625 28.914062 C 26.570312 29.175781 26.492188 29.441406 26.421875 29.703125 C 26.164062 29.707031 25.910156 29.71875 25.652344 29.726562 C 23.886719 29.804688 22.128906 30 20.398438 30.371094 C 16.882812 31.121094 13.46875 32.636719 10.855469 35.105469 C 7.035156 38.71875 5.242188 44.085938 5 49.335938 C 4.929688 50.8125 4.972656 52.296875 5.175781 53.757812 C 6.089844 60.300781 10.449219 66.226562 16.355469 69.179688 C 22.261719 72.132812 29.550781 72.074219 35.476562 69.164062 C 38.300781 67.773438 40.839844 65.757812 42.71875 63.238281 C 43.824219 61.753906 44.671875 60.125 45.273438 58.402344 C 45.300781 58.328125 45.328125 58.25 45.351562 58.171875 C 45.59375 57.457031 45.796875 56.730469 45.953125 55.992188 C 45.976562 55.886719 46 55.777344 46.019531 55.667969 C 46.214844 54.695312 46.339844 53.703125 46.394531 52.703125 C 46.398438 52.699219 46.398438 52.691406 46.394531 52.6875 C 46.644531 48.351562 45.625 43.875 43.539062 40.054688 C 43.027344 39.128906 42.453125 38.222656 41.816406 37.367188 C 43.695312 39.542969 45.164062 42.066406 46.066406 44.796875 C 46.910156 47.355469 47.234375 50.09375 47.027344 52.78125 " fill-opacity="1" fill-rule="nonzero"/><path fill="#8e88ed" d="M 31.542969 33.570312 C 31.488281 33.554688 31.441406 33.539062 31.390625 33.527344 C 31.394531 33.511719 31.394531 33.496094 31.398438 33.480469 C 31.445312 33.507812 31.496094 33.539062 31.542969 33.570312 " fill-opacity="1" fill-rule="nonzero"/><path fill="#8e88ed" d="M 40.972656 42.136719 C 39.847656 40.660156 38.5 39.34375 37.164062 38.046875 C 35.835938 36.753906 34.476562 35.4375 32.796875 34.65625 C 32.386719 34.464844 31.875 34.167969 31.949219 33.722656 C 35.769531 35.4375 38.992188 38.449219 40.972656 42.136719 " fill-opacity="1" fill-rule="nonzero"/><path fill="#8e88ed" d="M 27.8125 32.898438 L 27.800781 32.898438 C 27.8125 32.820312 27.820312 32.742188 27.828125 32.660156 L 27.835938 32.660156 C 27.828125 32.742188 27.820312 32.820312 27.8125 32.898438 " fill-opacity="1" fill-rule="nonzero"/><path fill="#8e88ed" d="M 43.976562 51.902344 C 43.96875 51.988281 43.964844 52.078125 43.957031 52.164062 C 43.886719 53.257812 43.699219 54.34375 43.40625 55.402344 C 43.398438 55.4375 43.386719 55.476562 43.378906 55.511719 C 43.183594 56.203125 42.945312 56.878906 42.664062 57.539062 C 42.632812 57.609375 42.601562 57.675781 42.574219 57.742188 C 42.175781 58.636719 41.695312 59.496094 41.140625 60.300781 C 37.84375 65.066406 32.15625 67.929688 26.378906 68.34375 C 24.96875 68.441406 23.546875 68.410156 22.164062 68.136719 C 16.875 67.09375 12.621094 63.832031 10.203125 59.121094 C 7.921875 54.675781 6.921875 49.285156 8.648438 44.480469 C 10.238281 40.058594 13.65625 36.261719 18 34.472656 C 20.277344 33.53125 22.730469 33.140625 25.179688 32.863281 C 25.351562 32.84375 25.523438 32.824219 25.699219 32.804688 C 25.742188 32.800781 25.785156 32.796875 25.828125 32.792969 C 25.824219 32.820312 25.820312 32.847656 25.820312 32.875 C 25.605469 32.878906 25.390625 32.894531 25.175781 32.910156 C 20.019531 33.289062 15 35.800781 11.855469 39.921875 C 7.40625 45.75 7.089844 54.433594 11.191406 60.515625 C 15.289062 66.59375 23.546875 69.546875 30.539062 67.34375 C 32.539062 66.710938 34.410156 65.710938 36.148438 64.53125 C 38.0625 63.238281 39.847656 61.6875 41.070312 59.722656 C 41.488281 59.050781 41.832031 58.339844 42.113281 57.605469 C 42.144531 57.535156 42.167969 57.464844 42.195312 57.394531 C 42.4375 56.734375 42.632812 56.054688 42.785156 55.363281 C 42.792969 55.339844 42.800781 55.3125 42.804688 55.289062 C 42.828125 55.179688 42.851562 55.066406 42.871094 54.957031 C 43.070312 53.960938 43.191406 52.953125 43.226562 51.933594 C 43.230469 51.8125 43.238281 51.6875 43.238281 51.566406 C 43.292969 48.410156 42.570312 45.238281 41.125 42.425781 C 41.074219 42.332031 41.023438 42.234375 40.972656 42.136719 C 41.394531 42.683594 41.78125 43.257812 42.128906 43.851562 C 43.535156 46.285156 44.121094 49.101562 43.976562 51.902344 " fill-opacity="1" fill-rule="nonzero"/></svg>